<?xml version="1.0" encoding="utf-8"?>
<!-- Generator: Adobe Illustrator 23.0.0, SVG Export Plug-In . SVG Version: 6.00 Build 0)  -->
<svg version="1.1" id="b33613f3-47b2-4fb7-9d5b-ca5c70d6619d"
	 xmlns="http://www.w3.org/2000/svg" xmlns:xlink="http://www.w3.org/1999/xlink" x="0px" y="0px" viewBox="0 0 863 826.7"
	 style="enable-background:new 0 0 863 826.7;" xml:space="preserve">
<style type="text/css">
	.st0{fill:#F2F2F2;}
	.st1{fill:#3F3D56;}
	.st2{opacity:0.1;enable-background:new    ;}
	.st3{fill:#2F2E41;}
	.st4{fill:#FFB9B9;}
	.st5{fill:#6C63FF;}
	.st6{opacity:0.1;fill:#535461;enable-background:new    ;}
	.st7{opacity:0.5;}
	.st8{fill:url(#SVGID_1_);}
	.st9{fill:#F5F5F5;}
	.st10{fill:#E0E0E0;}
	.st11{fill:url(#SVGID_2_);}
	.st12{fill:#FFFFFF;}
	.st13{fill:url(#SVGID_3_);}
	.st14{opacity:0.6;}
	.st15{fill:#BDBDBD;}
	.st16{fill:url(#SVGID_4_);}
	.st17{opacity:0.6;fill:#3AD29F;enable-background:new    ;}
	.st18{fill:url(#SVGID_5_);}
	.st19{fill:url(#SVGID_6_);}
	.st20{fill:#69F0AE;}
	.st21{opacity:0.7;}
	.st22{fill:url(#SVGID_7_);}
	.st23{fill:#EEEEEE;}
	.st24{fill:url(#SVGID_8_);}
	.st25{fill:none;stroke:#6C63FF;stroke-width:2;stroke-miterlimit:10;}
	.st26{fill:none;stroke:#FFFFFF;stroke-miterlimit:10;}
	.st27{fill:#D0CDE1;}
	.st28{fill:url(#SVGID_9_);}
	.st29{fill:#535461;}
	.st30{fill:#3AD29F;}
	.st31{fill:#4D8AF0;}
	.st32{fill:#F55F44;}
	.st33{opacity:0.1;}
</style>
<title>laravel and vue</title>
<path class="st0" d="M715.2,309.4C671.8,132.8,522.1,5.3,346.3,0.2c-92.9-2.7-190.7,29.2-261.9,141C-42.8,341,92.3,479,186.5,544.7
	c45.5,31.8,86.5,70,121.8,113.5c63.6,78.2,186,175.5,331.7,23.1C745.6,570.8,744,427,715.2,309.4z"/>
<path class="st1" d="M862,702.7c0,43.4-189.2,124-427.5,124S0,751.1,0,707.7s196.2-38,434.5-38S862,659.4,862,702.7z"/>
<path class="st2" d="M862,702.7c0,43.4-189.2,124-427.5,124S0,751.1,0,707.7s196.2-38,434.5-38S862,659.4,862,702.7z"/>
<ellipse class="st1" cx="431.5" cy="707.2" rx="431.5" ry="78.5"/>
<polygon class="st3" points="594.9,440.2 594.9,650.2 630,707.4 632.6,711.8 771.2,711.8 774,440.2 "/>
<polygon class="st2" points="594.9,440.2 594.9,650.2 630,707.4 632.1,440.2 "/>
<polygon class="st3" points="260.3,434.6 260.3,644.6 225.2,701.8 222.6,706.2 84,706.2 81.2,434.6 "/>
<polygon class="st2" points="260.3,434.6 260.3,644.6 225.2,701.8 223.1,434.6 "/>
<polygon class="st3" points="816,430.4 816,443 63,443 63,424.8 133,388.5 754.4,388.5 "/>
<polygon class="st2" points="816,430.4 816,443 63,443 63,424.8 "/>
<polygon class="st2" points="170.8,493.4 137.2,493.4 123.2,483.6 186.2,483.6 "/>
<polygon class="st2" points="170.8,534 137.2,534 123.2,524.2 186.2,524.2 "/>
<polygon class="st2" points="170.8,591.4 137.2,591.4 123.2,581.6 186.2,581.6 "/>
<polygon class="st2" points="170.8,648.8 137.2,648.8 123.2,639 186.2,639 "/>
<polygon class="st2" points="684.4,499 718,499 732,489.2 669,489.2 "/>
<polygon class="st2" points="684.4,539.6 718,539.6 732,529.8 669,529.8 "/>
<polygon class="st2" points="684.4,597 718,597 732,587.2 669,587.2 "/>
<polygon class="st2" points="684.4,654.4 718,654.4 732,644.6 669,644.6 "/>
<path class="st1" d="M532.5,353.4l-4.7,29.8c0,0-23,12.2-6.8,12.6s92.3,0,92.3,0s14.7,0-8.6-12.9l-4.7-31.2L532.5,353.4z"/>
<path class="st2" d="M517.8,395.5c3.1-2.5,6.5-4.8,10.1-6.7l4.7-29.8l67.5,0.1l4.7,29.4c3.8,2,7.5,4.4,10.8,7.1
	c3-0.7,6.3-3.2-10.8-12.7l-4.7-31.2l-67.5,1.8l-4.7,29.8C527.8,383.2,508.5,393.5,517.8,395.5z"/>
<path class="st1" d="M424.5,145.7h282.8c5.9,0,10.7,4.8,10.7,10.7v190.5c0,5.9-4.8,10.7-10.7,10.7H424.5c-5.9,0-10.7-4.8-10.7-10.7
	V156.4C413.8,150.5,418.6,145.7,424.5,145.7z"/>
<rect x="424.1" y="157" class="st0" width="283.7" height="158.7"/>
<circle class="st0" cx="565.9" cy="152" r="1.8"/>
<path class="st1" d="M718,328.3v18.6c0,5.9-4.8,10.7-10.7,10.7c0,0,0,0,0,0H424.5c-5.9,0-10.7-4.8-10.7-10.7c0,0,0,0,0,0v-18.6H718z
	"/>
<circle class="st0" cx="565.9" cy="343" r="6.8"/>
<polygon class="st1" points="555.3,415.2 555.3,418.8 362.1,418.8 362.1,415.9 362.3,415.2 367.1,402.3 551.3,402.3 "/>
<path class="st1" d="M629.6,411.7c-0.4,1.5-1.7,3.1-4.7,4.6c-10.8,5.4-32.7-1.4-32.7-1.4s-16.9-2.9-16.9-10.4c0.5-0.3,1-0.6,1.5-0.9
	c4.5-2.4,19.5-8.3,46.2,0.3c2,0.6,3.7,1.8,5.1,3.3C629.3,408.3,629.9,410,629.6,411.7z"/>
<path class="st2" d="M629.6,411.7c-13.2,5.1-24.9,5.4-37-2.9c-6.1-4.2-11.6-5.3-15.8-5.2c4.5-2.4,19.5-8.3,46.2,0.3
	c2,0.6,3.7,1.8,5.1,3.3C629.3,408.3,629.9,410,629.6,411.7z"/>
<ellipse class="st0" cx="613.1" cy="407.3" rx="4.7" ry="1.4"/>
<polygon class="st2" points="555.3,415.2 555.3,418.8 362.1,418.8 362.1,415.9 362.3,415.2 "/>
<circle class="st4" cx="394.6" cy="155.9" r="38.2"/>
<path class="st4" d="M366.5,175v60.4h62.4c0,0-8.1-50.3-4-65.4L366.5,175z"/>
<path class="st1" d="M302,450.8c0,0-29.2-11.1-34.2,10.1s12.1,115.7,12.1,115.7s11.1,71.5,18.1,73.5s38.2,3,43.3-6
	s-15.1-101.7-15.1-101.7l116.8-2c0,0-7,80.5-11.1,87.6s-4,31.2,0,31.2s48.3-2,51.3-8.1s20.1-141.9,20.1-141.9s14.1-47.3-2-44.3
	S302,450.8,302,450.8z"/>
<path class="st3" d="M474.2,647.1c0,0,10.1-7,15.1,0s7,15.1-15.1,27.2s-39.3,9.1-39.3,7v-29.2L474.2,647.1z"/>
<path class="st3" d="M300,644c0,0-10.1-7-15.1,0s-7,15.1,15.1,27.2s39.3,9.1,39.3,7v-29.2L300,644z"/>
<path class="st3" d="M394.9,107.7c-3.8-0.1-7.6,0.4-11.2,1.6c-2.8,1.1-5.5,2.5-8,4.2L358.8,124c-2.9,1.3-4.8,4.2-4.8,7.4l-2.1,15.8
	c-0.5,4-1,8.3,0.8,11.9c1.5,3,4.3,5.1,6.7,7.5c3.7,3.9,6.3,8.8,7.2,14.1c1.2,6.6,0.4,14.5,5.7,18.8c2.8,2.3,6.7,2.7,10.3,2.9
	c9.9,0.6,19.9,0.2,29.7-1.1c1.6-0.1,3.1-0.5,4.5-1.3c1.8-1,2.9-2.9,3.9-4.7c3.8-6.4,7.7-13.2,7.6-20.7c0-3.7-1-7.6,0.8-10.9
	c0.9-1.4,1.9-2.7,3-3.9c2.2-3.1,2.6-7,3-10.8c1.1-12-0.1-21.1-8.9-29.6C417.9,111.4,406.2,107.7,394.9,107.7z"/>
<polygon class="st3" points="300.9,569.7 267.3,740.5 284.1,740.5 316.3,572.5 "/>
<polygon class="st3" points="408.7,583.7 429.7,779.6 443.7,779.6 431.1,578.1 "/>
<polygon class="st3" points="466.1,578.1 495.5,708.3 509.5,708.3 481.5,575.3 "/>
<polygon class="st3" points="354.1,578.1 349.9,681.7 361.1,681.7 369.5,578.1 "/>
<path class="st5" d="M851,612.7c0,26.1-15.5,35.2-34.7,35.2s-34.7-9.1-34.7-35.2s34.7-59.3,34.7-59.3S851,586.5,851,612.7z"/>
<polygon class="st1" points="815.4,622 830.2,595 815.5,618.6 815.6,608.8 825.8,589.2 815.7,606.2 816,588.5 826.9,572.9 
	816,585.7 816.2,553.3 815.1,594.4 804.1,577.5 815,597.9 813.9,617.6 813.9,617.1 801.1,599.2 813.9,618.9 813.7,621.4 
	813.7,621.4 813.7,621.6 811.1,648 814.6,648 815,645.8 827.7,626.2 815.1,643.9 "/>
<polygon class="st3" points="838.5,704.5 797.1,704.5 786.4,644.2 846.8,644.2 "/>
<path class="st1" d="M256.6,306.6v80.2c0,1.6-1.3,2.9-2.9,2.9H140.5c-1.6,0-2.9-1.3-2.9-2.9v-80.2c0-1.6,1.3-2.9,2.9-2.9h113.2
	C255.3,303.7,256.6,305,256.6,306.6z"/>
<rect x="141.4" y="307.9" class="st0" width="107.2" height="78.4"/>
<circle class="st0" cx="252.9" cy="348" r="1.9"/>
<rect x="141.4" y="307.9" class="st6" width="107.2" height="78.4"/>
<g class="st7">
	
		<linearGradient id="SVGID_1_" gradientUnits="userSpaceOnUse" x1="163.7523" y1="487.7319" x2="163.7523" y2="510.845" gradientTransform="matrix(1 0 0 -1 0 825.8898)">
		<stop  offset="0" style="stop-color:#808080;stop-opacity:0.25"/>
		<stop  offset="0.5351" style="stop-color:#808080;stop-opacity:0.12"/>
		<stop  offset="1" style="stop-color:#808080;stop-opacity:0.1"/>
	</linearGradient>
	<path class="st8" d="M152.2,315h23c0.6,0,1.1,0.5,1.1,1.1v20.9c0,0.6-0.5,1.1-1.1,1.1h-23c-0.6,0-1.1-0.5-1.1-1.1v-20.9
		C151.1,315.5,151.6,315,152.2,315z"/>
</g>
<path class="st9" d="M152.5,315.2H175c0.6,0,1.1,0.5,1.1,1.1v20.3c0,0.6-0.5,1.1-1.1,1.1h-22.4c-0.6,0-1.1-0.5-1.1-1.1v-20.3
	C151.4,315.7,151.9,315.2,152.5,315.2z"/>
<path class="st5" d="M154.4,318.9h1.9c0.6,0,1.1,0.5,1.1,1.1v1.5c0,0.6-0.5,1.1-1.1,1.1h-1.9c-0.6,0-1.1-0.5-1.1-1.1V320
	C153.3,319.4,153.8,318.9,154.4,318.9z"/>
<path class="st10" d="M158.9,318.9h16.1c0.1,0,0.2,0.1,0.2,0.2v0c0,0.1-0.1,0.2-0.2,0.2h-16.1c-0.1,0-0.2-0.1-0.2-0.2v0
	C158.7,319,158.8,318.9,158.9,318.9z"/>
<path class="st10" d="M158.9,320.2h16.1c0.1,0,0.2,0.1,0.2,0.2v0c0,0.1-0.1,0.2-0.2,0.2h-16.1c-0.1,0-0.2-0.1-0.2-0.2v0
	C158.7,320.3,158.8,320.2,158.9,320.2z"/>
<path class="st10" d="M153.1,324.7h22c0.1,0,0.2,0.1,0.2,0.2v0c0,0.1-0.1,0.2-0.2,0.2h-22c-0.1,0-0.2-0.1-0.2-0.2v0
	C152.9,324.8,153,324.7,153.1,324.7z"/>
<path class="st10" d="M153.1,325.9h22c0.1,0,0.2,0.1,0.2,0.2v0c0,0.1-0.1,0.2-0.2,0.2h-22c-0.1,0-0.2-0.1-0.2-0.2v0
	C152.9,326,153,325.9,153.1,325.9z"/>
<path class="st10" d="M153.1,327.6h22c0.1,0,0.2,0.1,0.2,0.2v0c0,0.1-0.1,0.2-0.2,0.2h-22c-0.1,0-0.2-0.1-0.2-0.2v0
	C152.9,327.6,153,327.6,153.1,327.6z"/>
<path class="st10" d="M153.1,328.8h12.5c0.1,0,0.2,0.1,0.2,0.2v0c0,0.1-0.1,0.2-0.2,0.2h-12.5c-0.1,0-0.2-0.1-0.2-0.2v0
	C152.9,328.9,153,328.8,153.1,328.8z"/>
<path class="st10" d="M153.1,330.4h22c0.1,0,0.2,0.1,0.2,0.2v0c0,0.1-0.1,0.2-0.2,0.2h-22c-0.1,0-0.2-0.1-0.2-0.2v0
	C152.9,330.5,153,330.4,153.1,330.4z"/>
<path class="st10" d="M153.1,331.7h22c0.1,0,0.2,0.1,0.2,0.2v0c0,0.1-0.1,0.2-0.2,0.2h-22c-0.1,0-0.2-0.1-0.2-0.2v0
	C152.9,331.8,153,331.7,153.1,331.7z"/>
<path class="st10" d="M153.1,333.3h22c0.1,0,0.2,0.1,0.2,0.2v0c0,0.1-0.1,0.2-0.2,0.2h-22c-0.1,0-0.2-0.1-0.2-0.2v0
	C152.9,333.4,153,333.3,153.1,333.3z"/>
<path class="st10" d="M153.1,334.6h12.5c0.1,0,0.2,0.1,0.2,0.2v0c0,0.1-0.1,0.2-0.2,0.2h-12.5c-0.1,0-0.2-0.1-0.2-0.2v0
	C152.9,334.7,153,334.6,153.1,334.6z"/>
<g class="st7">
	
		<linearGradient id="SVGID_2_" gradientUnits="userSpaceOnUse" x1="167.5625" y1="482.3909" x2="167.5625" y2="505.504" gradientTransform="matrix(1 0 0 -1 0 825.8898)">
		<stop  offset="0" style="stop-color:#808080;stop-opacity:0.25"/>
		<stop  offset="0.5351" style="stop-color:#808080;stop-opacity:0.12"/>
		<stop  offset="1" style="stop-color:#808080;stop-opacity:0.1"/>
	</linearGradient>
	<path class="st11" d="M156,320.4h23c0.6,0,1.1,0.5,1.1,1.1v20.9c0,0.6-0.5,1.1-1.1,1.1h-23c-0.6,0-1.1-0.5-1.1-1.1v-20.9
		C154.9,320.9,155.4,320.4,156,320.4z"/>
</g>
<path class="st12" d="M156.4,320.6h22.4c0.6,0,1.1,0.5,1.1,1.1V342c0,0.6-0.5,1.1-1.1,1.1h-22.4c-0.6,0-1.1-0.5-1.1-1.1v-20.3
	C155.2,321.1,155.7,320.6,156.4,320.6z"/>
<path class="st5" d="M158.3,324.3h1.9c0.6,0,1.1,0.5,1.1,1.1v1.5c0,0.6-0.5,1.1-1.1,1.1h-1.9c-0.6,0-1.1-0.5-1.1-1.1v-1.5
	C157.1,324.8,157.6,324.3,158.3,324.3z"/>
<path class="st10" d="M162.8,324.3h16.1c0.1,0,0.2,0.1,0.2,0.2v0c0,0.1-0.1,0.2-0.2,0.2h-16.1c-0.1,0-0.2-0.1-0.2-0.2v0
	C162.6,324.4,162.6,324.3,162.8,324.3z"/>
<path class="st10" d="M162.8,325.5h16.1c0.1,0,0.2,0.1,0.2,0.2v0c0,0.1-0.1,0.2-0.2,0.2h-16.1c-0.1,0-0.2-0.1-0.2-0.2v0
	C162.6,325.6,162.6,325.5,162.8,325.5z"/>
<path class="st10" d="M156.9,330h22c0.1,0,0.2,0.1,0.2,0.2v0c0,0.1-0.1,0.2-0.2,0.2h-22c-0.1,0-0.2-0.1-0.2-0.2v0
	C156.7,330.1,156.8,330,156.9,330z"/>
<path class="st10" d="M156.9,331.3h22c0.1,0,0.2,0.1,0.2,0.2v0c0,0.1-0.1,0.2-0.2,0.2h-22c-0.1,0-0.2-0.1-0.2-0.2v0
	C156.7,331.3,156.8,331.3,156.9,331.3z"/>
<path class="st10" d="M156.9,332.9h22c0.1,0,0.2,0.1,0.2,0.2v0c0,0.1-0.1,0.2-0.2,0.2h-22c-0.1,0-0.2-0.1-0.2-0.2v0
	C156.7,333,156.8,332.9,156.9,332.9z"/>
<path class="st10" d="M156.9,334.1h12.5c0.1,0,0.2,0.1,0.2,0.2v0c0,0.1-0.1,0.2-0.2,0.2h-12.5c-0.1,0-0.2-0.1-0.2-0.2v0
	C156.7,334.2,156.8,334.1,156.9,334.1z"/>
<path class="st10" d="M156.9,335.8h22c0.1,0,0.2,0.1,0.2,0.2v0c0,0.1-0.1,0.2-0.2,0.2h-22c-0.1,0-0.2-0.1-0.2-0.2v0
	C156.7,335.9,156.8,335.8,156.9,335.8z"/>
<path class="st10" d="M156.9,337h22c0.1,0,0.2,0.1,0.2,0.2v0c0,0.1-0.1,0.2-0.2,0.2h-22c-0.1,0-0.2-0.1-0.2-0.2v0
	C156.7,337.1,156.8,337,156.9,337z"/>
<path class="st10" d="M156.9,338.7h22c0.1,0,0.2,0.1,0.2,0.2v0c0,0.1-0.1,0.2-0.2,0.2h-22c-0.1,0-0.2-0.1-0.2-0.2v0
	C156.7,338.8,156.8,338.7,156.9,338.7z"/>
<path class="st10" d="M156.9,339.9h12.5c0.1,0,0.2,0.1,0.2,0.2v0c0,0.1-0.1,0.2-0.2,0.2h-12.5c-0.1,0-0.2-0.1-0.2-0.2v0
	C156.7,340,156.8,339.9,156.9,339.9z"/>
<linearGradient id="SVGID_3_" gradientUnits="userSpaceOnUse" x1="197.5728" y1="488.7508" x2="197.5728" y2="502.0074" gradientTransform="matrix(1 0 0 -1 0 825.8898)">
	<stop  offset="0" style="stop-color:#808080;stop-opacity:0.25"/>
	<stop  offset="0.5351" style="stop-color:#808080;stop-opacity:0.12"/>
	<stop  offset="1" style="stop-color:#808080;stop-opacity:0.1"/>
</linearGradient>
<rect x="190.6" y="323.9" class="st13" width="13.9" height="13.3"/>
<rect x="190.8" y="324.2" class="st9" width="13.5" height="12.7"/>
<g class="st14">
	<rect x="195.3" y="331.7" class="st5" width="4.9" height="0.6"/>
</g>
<rect x="193.4" y="332.9" class="st15" width="8.3" height="0.6"/>
<g class="st7">
	
		<linearGradient id="SVGID_4_" gradientUnits="userSpaceOnUse" x1="226.0552" y1="478.2561" x2="226.0552" y2="513.6068" gradientTransform="matrix(1 0 0 -1 0 825.8898)">
		<stop  offset="0" style="stop-color:#808080;stop-opacity:0.25"/>
		<stop  offset="0.5351" style="stop-color:#808080;stop-opacity:0.12"/>
		<stop  offset="1" style="stop-color:#808080;stop-opacity:0.1"/>
	</linearGradient>
	<rect x="210.9" y="312.3" class="st16" width="30.3" height="35.4"/>
</g>
<rect x="211.8" y="312.9" class="st12" width="28.7" height="34"/>
<rect x="216.1" y="327.8" class="st10" width="20.2" height="0.9"/>
<rect x="216.1" y="333.4" class="st10" width="20.2" height="0.9"/>
<rect x="216.1" y="334.9" class="st10" width="20.2" height="0.9"/>
<rect x="216.1" y="331.9" class="st10" width="8.5" height="0.9"/>
<rect x="230" y="331.9" class="st17" width="6.4" height="0.9"/>
<rect x="223.2" y="338.4" class="st5" width="6.4" height="0.9"/>
<g class="st7">
	
		<linearGradient id="SVGID_5_" gradientUnits="userSpaceOnUse" x1="202.2109" y1="453.6301" x2="202.2109" y2="468.3137" gradientTransform="matrix(1 0 0 -1 0 825.8898)">
		<stop  offset="0" style="stop-color:#808080;stop-opacity:0.25"/>
		<stop  offset="0.5351" style="stop-color:#808080;stop-opacity:0.12"/>
		<stop  offset="1" style="stop-color:#808080;stop-opacity:0.1"/>
	</linearGradient>
	<rect x="193.2" y="357.6" class="st18" width="18" height="14.7"/>
</g>
<rect x="193.4" y="357.9" class="st0" width="17.6" height="14.2"/>
<rect x="193.4" y="357.9" class="st5" width="17.6" height="3.2"/>
<rect x="193.4" y="357.9" class="st2" width="17.6" height="3.2"/>
<rect x="194.8" y="362.2" class="st10" width="14.8" height="1.8"/>
<rect x="194.8" y="365.4" class="st10" width="10.8" height="0.6"/>
<rect x="194.8" y="366.5" class="st10" width="7" height="0.6"/>
<rect x="194.8" y="367.5" class="st10" width="9.2" height="0.6"/>
<rect x="194.8" y="368.6" class="st10" width="10.8" height="0.6"/>
<rect x="194.8" y="369.7" class="st10" width="3.6" height="0.6"/>
<g class="st7">
	
		<linearGradient id="SVGID_6_" gradientUnits="userSpaceOnUse" x1="193.0872" y1="455.4993" x2="193.0872" y2="473.6992" gradientTransform="matrix(1 0 0 -1 0 825.8898)">
		<stop  offset="0" style="stop-color:#808080;stop-opacity:0.25"/>
		<stop  offset="0.5351" style="stop-color:#808080;stop-opacity:0.12"/>
		<stop  offset="1" style="stop-color:#808080;stop-opacity:0.1"/>
	</linearGradient>
	<rect x="181.9" y="352.2" class="st19" width="22.3" height="18.2"/>
</g>
<rect x="182.2" y="352.5" class="st12" width="21.8" height="17.6"/>
<rect x="182.2" y="352.5" class="st5" width="21.8" height="3.9"/>
<rect x="183.9" y="357.9" class="st9" width="18.3" height="2.3"/>
<rect x="183.9" y="361.9" class="st10" width="13.4" height="0.8"/>
<rect x="183.9" y="363.2" class="st10" width="8.7" height="0.8"/>
<rect x="183.9" y="364.5" class="st10" width="11.4" height="0.8"/>
<rect x="183.9" y="365.9" class="st10" width="13.4" height="0.8"/>
<rect x="183.9" y="367.2" class="st10" width="4.5" height="0.8"/>
<rect x="184.9" y="358.6" class="st20" width="5.2" height="0.7"/>
<g class="st21">
	
		<linearGradient id="SVGID_7_" gradientUnits="userSpaceOnUse" x1="923.9113" y1="247.8963" x2="923.9113" y2="286.3862" gradientTransform="matrix(1 0 0 -1 -168.578 662.8898)">
		<stop  offset="0" style="stop-color:#808080;stop-opacity:0.25"/>
		<stop  offset="0.5351" style="stop-color:#808080;stop-opacity:0.12"/>
		<stop  offset="1" style="stop-color:#808080;stop-opacity:0.1"/>
	</linearGradient>
	<path class="st22" d="M768,383.4v-6.9h-34.4v31.8c0,3.7,3,6.7,6.7,6.7h21c3.7,0,6.7-3,6.7-6.7v-7c5.9,0,10.4-5.6,8.5-11.8
		C775.4,385.8,771.9,383.4,768,383.4L768,383.4L768,383.4z M768,397.8v-11c3,0,5.5,2.5,5.5,5.5C773.5,395.3,771.1,397.8,768,397.8
		L768,397.8z"/>
</g>
<path class="st5" d="M766.9,384.5c-4.6,0-8.3,3.8-8.2,8.5c0.2,4.2,3.6,7.7,7.8,7.8c4.7,0.2,8.5-3.5,8.5-8.2
	C775.1,388.1,771.4,384.5,766.9,384.5L766.9,384.5z M766.9,397.6c-3.1,0-5.5-2.8-4.9-6c0.4-2,2-3.5,3.9-3.9c3.2-0.6,6,1.8,6,4.9l0,0
	C772,395.4,769.7,397.6,766.9,397.6z"/>
<path class="st2" d="M766.9,384.5c-4.6,0-8.3,3.8-8.2,8.5c0.2,4.2,3.6,7.7,7.8,7.8c4.7,0.2,8.5-3.5,8.5-8.2
	C775.1,388.1,771.4,384.5,766.9,384.5L766.9,384.5z M766.9,397.6c-3.1,0-5.5-2.8-4.9-6c0.4-2,2-3.5,3.9-3.9c3.2-0.6,6,1.8,6,4.9l0,0
	C772,395.4,769.7,397.6,766.9,397.6z"/>
<path class="st5" d="M735.6,378.2h31.4l0,0v29c0,3.4-2.8,6.2-6.2,6.2h-19.1c-3.4,0-6.2-2.8-6.2-6.2V378.2L735.6,378.2z"/>
<path class="st2" d="M761.3,378.2v29c0,3.4-2.7,6.1-6.1,6.1h3.1c3.4,0,6.1-2.7,6.1-6.1v-29H761.3z"/>
<path class="st23" d="M741.8,354.8c-0.5,0-1.1,0.3-1.4,0.7c-0.4,0.7,0.3,1.6,1,2.1c1.3,0.9,2.6,1.9,3.4,3.2c0.9,1.3,1.1,3.2,0.2,4.4
	c-1.3,1.7-4.4,2-4.4,4.4c0,0.8,0.5,1.6,1.2,2.1c2.9,2.2,7.2,2.4,9.5,5.2c0.8-1.7,2.7-2.7,4.6-3.2c1.9-0.4,3.8-0.4,5.8-0.7
	c0.6,0,1.2-0.3,1.6-0.8c0.5-1.1-1-2.4-0.5-3.5c0.4-0.8,1.6-0.8,2.4-1.1c1.4-0.5,2-2.3,1.6-3.8c-0.4-1.4-1.5-2.6-2.7-3.5
	c-3.2-2.5-7-4-10.9-5c-1.8-0.5-3.9-1.3-5.8-1.3C745.6,353.9,743.5,354.5,741.8,354.8z"/>
<g class="st7">
	
		<linearGradient id="SVGID_8_" gradientUnits="userSpaceOnUse" x1="564.3389" y1="550.757" x2="564.3389" y2="633.403" gradientTransform="matrix(1 0 0 -1 0 825.8898)">
		<stop  offset="0" style="stop-color:#808080;stop-opacity:0.25"/>
		<stop  offset="0.54" style="stop-color:#808080;stop-opacity:0.12"/>
		<stop  offset="1" style="stop-color:#808080;stop-opacity:0.1"/>
	</linearGradient>
	<path class="st24" d="M493.7,192.5H635c1.1,0,2,0.9,2,2v78.7c0,1.1-0.9,2-2,2H493.7c-1.1,0-2-0.9-2-2v-78.7
		C491.7,193.4,492.6,192.5,493.7,192.5z"/>
</g>
<path class="st12" d="M495.6,193.1h137.6c1.1,0,2,0.9,2,2v77c0,1.1-0.9,2-2,2H495.6c-1.1,0-2-0.9-2-2v-77
	C493.6,194,494.5,193.1,495.6,193.1z"/>
<g class="st7">
	<path class="st5" d="M535,204.7h11.6c1.1,0,2,0.9,2,2v10.1c0,1.1-0.9,2-2,2H535c-1.1,0-2-0.9-2-2v-10.1
		C533,205.6,533.9,204.7,535,204.7z"/>
</g>
<path class="st10" d="M554.1,204.7h40.6c0.4,0,0.8,0.3,0.8,0.8v0c0,0.4-0.3,0.8-0.8,0.8h-40.6c-0.4,0-0.8-0.3-0.8-0.8v0
	C553.3,205.1,553.6,204.7,554.1,204.7z"/>
<path class="st10" d="M554.1,209.4h33.5c0.4,0,0.8,0.3,0.8,0.8l0,0c0,0.4-0.3,0.8-0.8,0.8h-33.5c-0.4,0-0.8-0.3-0.8-0.8l0,0
	C553.3,209.8,553.6,209.4,554.1,209.4z"/>
<g class="st7">
	<path class="st5" d="M535,226.6h11.6c1.1,0,2,0.9,2,2v10.1c0,1.1-0.9,2-2,2H535c-1.1,0-2-0.9-2-2v-10.1
		C533,227.4,533.9,226.6,535,226.6z"/>
</g>
<path class="st10" d="M554.1,226.6h40.6c0.4,0,0.8,0.3,0.8,0.8l0,0c0,0.4-0.3,0.8-0.8,0.8h-40.6c-0.4,0-0.8-0.3-0.8-0.8l0,0
	C553.3,226.9,553.6,226.6,554.1,226.6z"/>
<path class="st10" d="M554.1,231.2h40.6c0.4,0,0.8,0.3,0.8,0.8l0,0c0,0.4-0.3,0.8-0.8,0.8h-40.6c-0.4,0-0.8-0.3-0.8-0.8l0,0
	C553.3,231.6,553.6,231.2,554.1,231.2z"/>
<g class="st7">
	<path class="st5" d="M535,248.4h11.6c1.1,0,2,0.9,2,2v10.1c0,1.1-0.9,2-2,2H535c-1.1,0-2-0.9-2-2v-10.1
		C533,249.3,533.9,248.4,535,248.4z"/>
</g>
<path class="st10" d="M554.1,248.4h40.6c0.4,0,0.8,0.3,0.8,0.8v0c0,0.4-0.3,0.8-0.8,0.8h-40.6c-0.4,0-0.8-0.3-0.8-0.8v0
	C553.3,248.8,553.6,248.4,554.1,248.4z"/>
<path class="st10" d="M554,253.1h41c0.4,0,0.7,0.3,0.7,0.7v0.2c0,0.4-0.3,0.7-0.7,0.7h-41c-0.4,0-0.7-0.3-0.7-0.7v-0.2
	C553.3,253.4,553.6,253.1,554,253.1z"/>
<line class="st25" x1="564.3" y1="179.7" x2="564.3" y2="170"/>
<line class="st25" x1="564.3" y1="196" x2="564.3" y2="183.2"/>
<circle class="st5" cx="564.3" cy="196" r="1.8"/>
<circle class="st26" cx="564.3" cy="181.4" r="1.8"/>
<line class="st25" x1="564.3" y1="179.7" x2="564.3" y2="170"/>
<line class="st25" x1="564.3" y1="196" x2="564.3" y2="183.2"/>
<circle class="st5" cx="564.3" cy="196" r="1.8"/>
<circle class="st26" cx="564.3" cy="181.4" r="1.8"/>
<line class="st25" x1="564.3" y1="284" x2="564.3" y2="297.6"/>
<line class="st25" x1="564.3" y1="271.7" x2="564.3" y2="284.4"/>
<circle class="st5" cx="564.3" cy="271.7" r="1.8"/>
<line class="st25" x1="485.1" y1="235.4" x2="471.2" y2="235.4"/>
<line class="st25" x1="497.2" y1="235.4" x2="484.5" y2="235.4"/>
<circle class="st5" cx="497.2" cy="235.4" r="1.8"/>
<line class="st25" x1="654.4" y1="235.4" x2="657" y2="235.4"/>
<line class="st25" x1="631" y1="235.4" x2="650.8" y2="235.4"/>
<circle class="st5" cx="631" cy="235.4" r="1.8"/>
<circle class="st26" cx="652.6" cy="235.4" r="1.8"/>
<path class="st27" d="M490.3,256.5c0,0-59.4-29.2-59.4-31.2s-6-15.1-10.1-15.1s-38.2-11.1-57.4,5l-2,13.1L288,276.7l20.1,73.5
	c0,0,13.1,14.1,9.1,24.2s3,61.4,3,61.4l158-5v-68.4c0,0,5-16.1,8.1-21.1s0-20.1,0-20.1l24.2-30.2
	C510.4,290.8,507.4,262.6,490.3,256.5z"/>
<path class="st2" d="M290.5,301.3l4.5-24.7c0,0-26.2,113.7-23.1,126.8s25.2,33.2,28.2,34.2s31.2-86.6,31.2-86.6L290.5,301.3z"/>
<path class="st27" d="M305.1,273.7l-17.1,3c0,0-26.2,113.7-23.1,126.8s25.2,33.2,28.2,34.2s31.2-86.6,31.2-86.6L305.1,273.7z"/>
<path class="st2" d="M495.8,307.4l8.6-16.6c0,0,12.1,113.7,4,124.8s-39.9,15.2-39.9,15.2l-0.4-82.6L495.8,307.4z"/>
<path class="st27" d="M497.3,277.7l13.1,13.1c0,0,12.1,113.7,4,124.8s-39.9,15.2-39.9,15.2l-0.4-82.6L497.3,277.7z"/>
<path class="st5" d="M277.1,551.5c0,0-22.4-149.8,40.6-154s152.6,0,152.6,0s51.8-4.2,36.4,154c0,0,14,46.2-112,42
	S277.1,551.5,277.1,551.5z"/>
<g>
	<g class="st21">
		
			<linearGradient id="SVGID_9_" gradientUnits="userSpaceOnUse" x1="775.3583" y1="258.275" x2="811.3525" y2="258.275" gradientTransform="matrix(1 0 0 -1 -114.28 626.8898)">
			<stop  offset="0" style="stop-color:#808080;stop-opacity:0.25"/>
			<stop  offset="0.54" style="stop-color:#808080;stop-opacity:0.12"/>
			<stop  offset="1" style="stop-color:#808080;stop-opacity:0.1"/>
		</linearGradient>
		<path class="st28" d="M695.6,396.4L695.6,396.4c0.1-0.2,0.2-0.3,0.3-0.4l0-0.1c0.1-0.1,0.1-0.2,0.2-0.4l0-0.1
			c0.1-0.1,0.1-0.3,0.2-0.4l0,0c0.1-0.3,0.2-0.6,0.3-0.9l0-0.1c0-0.1,0.1-0.2,0.1-0.3l0-0.2c0-0.1,0-0.2,0.1-0.3c0-0.1,0-0.1,0-0.2
			s0-0.2,0-0.3c0-0.1,0-0.1,0-0.2c0-0.1,0-0.2,0-0.3c0-0.1,0-0.1,0-0.2c0-0.2,0-0.3,0-0.5v-30.3H692v-14.9h-6.2v14.9h-4.3v-21.4
			h-6.2v21.4h-2.3v-24.4h-6.2v24.4h-5.5v30.4c0,5,4.1,9,9.2,9h17.6c2.9,0,5.7-1.4,7.4-3.7l0,0C695.4,396.7,695.5,396.5,695.6,396.4z
			"/>
	</g>
	<rect x="667.3" y="350.9" class="st29" width="5.9" height="36.7"/>
	<rect x="667.3" y="338.8" class="st30" width="5.9" height="12.1"/>
	<rect x="675.4" y="353.8" class="st29" width="5.9" height="36.7"/>
	<rect x="675.4" y="341.7" class="st31" width="5.9" height="12.1"/>
	<rect x="685.3" y="360.1" class="st29" width="5.9" height="36.7"/>
	<rect x="685.3" y="347.9" class="st32" width="5.9" height="12.1"/>
	<path class="st5" d="M662.2,362.3H696l0,0v29.2c0,4.8-3.9,8.6-8.6,8.6h-16.5c-4.8,0-8.6-3.9-8.6-8.6V362.3L662.2,362.3z"/>
	<g class="st33">
		<path d="M662.2,362.3v1.5h32.3v29.2c0,1.9-0.6,3.8-1.8,5.3c2.1-1.6,3.3-4.1,3.3-6.8v-29.2H662.2z"/>
	</g>
</g>
</svg>
